<?xml version="1.0" encoding="UTF-8" standalone="no"?>
<!-- Created with Inkscape (http://www.inkscape.org/) -->

<svg
   xmlns:dc="http://purl.org/dc/elements/1.1/"
   xmlns:cc="http://creativecommons.org/ns#"
   xmlns:rdf="http://www.w3.org/1999/02/22-rdf-syntax-ns#"
   xmlns:svg="http://www.w3.org/2000/svg"
   xmlns="http://www.w3.org/2000/svg"
   xmlns:sodipodi="http://sodipodi.sourceforge.net/DTD/sodipodi-0.dtd"
   xmlns:inkscape="http://www.inkscape.org/namespaces/inkscape"
   width="744.09448819"
   height="1052.3622047"
   id="svg2"
   version="1.1"
   inkscape:version="0.48.3.1 r9886"
   sodipodi:docname="thoughts.svg">
  <defs
     id="defs4" />
  <sodipodi:namedview
     id="base"
     pagecolor="#ffffff"
     bordercolor="#666666"
     borderopacity="1.0"
     inkscape:pageopacity="0.0"
     inkscape:pageshadow="2"
     inkscape:zoom="1"
     inkscape:cx="327.16607"
     inkscape:cy="635.36073"
     inkscape:document-units="px"
     inkscape:current-layer="layer1"
     showgrid="false"
     inkscape:window-width="927"
     inkscape:window-height="1028"
     inkscape:window-x="993"
     inkscape:window-y="24"
     inkscape:window-maximized="0" />
  <metadata
     id="metadata7">
    <rdf:RDF>
      <cc:Work
         rdf:about="">
        <dc:format>image/svg+xml</dc:format>
        <dc:type
           rdf:resource="http://purl.org/dc/dcmitype/StillImage" />
      </cc:Work>
    </rdf:RDF>
  </metadata>
  <g
     inkscape:label="Layer 1"
     inkscape:groupmode="layer"
     id="layer1">
    <path
       style="fill:none;stroke:#000000;stroke-width:1.09966576px;stroke-linecap:butt;stroke-linejoin:miter;stroke-opacity:1"
       d="m 125,96.199242 c 1.33333,-0.403089 2.63624,-1.003122 4,-1.209265 1.32304,-0.199988 2.66667,0 4,0 1.33333,0 2.66667,0 4,0 6,0 12,0 18,0 14,0 28,0 42,0 5,0 10,0 15,0 1.33333,0 2.66667,0 4,0 1.66667,0 3.3462,0.249984 5,0 1.04595,-0.158104 1.95405,-1.05116 3,-1.209264 2.64607,-0.399977 5.33333,0 8,0 5,0 10,0 15,0 2.33333,0 4.69012,0.399036 7,0 2.40231,-0.415006 4.59458,-2.030692 7,-2.41853 2.64327,-0.42619 5.33333,0 8,0 8,0 16,0 24,0 2.33333,0 4.66667,0 7,0 1.74363,0 3.58128,-0.506348 5,1.209265 0.2357,0.285026 -0.0808,0.818211 0,1.209265 0.25565,1.236618 0.66667,2.418529 1,3.627794 0.33333,1.209265 0.85093,2.365928 1,3.627793 0.18856,1.59615 0,3.22471 0,4.83706 0,1.61236 0,3.22471 0,4.83706 0,11.68956 0,23.37912 0,35.06868 0,9.67411 0,19.34823 0,29.02235 0,0.3675 -0.16254,10.29371 0,10.88338 0.38006,1.37878 1.61994,2.24903 2,3.6278 0.31623,1.14722 0,2.41853 0,3.62779 0,2.41853 0,4.83706 0,7.25559 0,6.44942 0,12.89883 0,19.34824 0,2.01544 0.13841,4.03784 0,6.04632 -0.19574,2.84042 -0.83207,5.62184 -1,8.46486 -0.16624,2.81445 0,5.64324 0,8.46485 0,5.64324 0,11.28648 0,16.92971 0,13.30191 0,26.60382 0,39.90573 0,20.15442 0,40.30884 0,60.46324 0,6.04633 0,12.09265 0,18.13898 0,2.82162 -0.30838,5.66799 0,8.46485 0.36328,3.2948 1.46093,6.41471 2,9.67412 2.06167,5.07101 0.33914,10.52594 1,15.72044 2.54944,20.03919 2,-2.09223 2,15.72044 0,5.90879 -0.63484,15.12088 1,20.55751 0.66423,2.20887 2.4415,3.79506 3,6.04632 0.0469,0.18925 -0.0457,11.59491 0,12.09265 0.15177,1.65182 0.73046,3.20735 1,4.83706 0.13074,0.79052 0,1.61236 0,2.41853 0,0.40309 -0.10541,0.82686 0,1.20926 0.34448,1.2497 2.23037,3.93803 0,4.83706 -0.63246,0.25494 -1.34628,-0.1581 -2,0 -1.03362,0.24999 -1.9565,1.029 -3,1.20926 -1.31993,0.22802 -2.66667,0 -4,0 -6,0 -12,0 -18,0 -6.33333,0 -12.66667,0 -19,0 -3.33333,0 -6.6718,0.2236 -10,0 -2.68328,-0.18026 -5.32186,-0.93938 -8,-1.20926 -1.66667,-0.16795 -9.16667,0.25194 -10,0 -0.91466,-0.27651 -1.21554,-1.78611 -2,-2.41853 -0.27735,-0.22359 -0.67314,0.0791 -1,0 -1.34768,-0.32593 -2.66667,-0.80617 -4,-1.20926 -1.66667,0 -3.35008,0.28502 -5,0 -3.04229,-0.52556 -6,-1.61235 -9,-2.41853 -3.33333,0 -6.68498,0.42197 -10,0 -3.0563,-0.38904 -5.94561,-2.00813 -9,-2.41853 -2.98165,-0.40062 -6,0 -9,0 -2.66667,0 -5.33333,0 -8,0 -11.33333,0 -22.66667,0 -34,0 -9.33333,0 -18.66667,0 -28,0 -0.59312,0 -6.7126,-0.17376 -7,0 -0.42164,0.25493 -0.57836,0.95432 -1,1.20926 -0.26294,0.15898 -3.47708,0 -4,0 -0.66667,0 -1.33333,0 -2,0 -0.33333,0 -1,0.4031 -1,0 0,-0.40308 1,0.4031 1,0 0,-1.27467 -1,-2.35311 -1,-3.62779 0,-2.05535 0.8789,-3.99619 1,-6.04633 0.21374,-3.61856 -0.35052,-7.28044 0,-10.88338 0.32117,-3.30118 1.65906,-6.37584 2,-9.67412 0.33076,-3.1998 0,-6.44941 0,-9.67412 0,-3.2247 0,-6.44941 0,-9.67412 0,-16.52661 0,-33.05323 0,-49.57985 0,-2.41853 0,-4.83706 0,-7.25559 0,-3.2247 -0.33076,-6.47431 0,-9.67412 0.34094,-3.29828 1.40372,-6.42932 2,-9.67412 0.73742,-4.01282 1.57836,-8.01367 2,-12.09265 0.24807,-2.39984 0,-4.83706 0,-7.25558 0,-6.44941 0,-12.89882 0,-19.34824 0,-16.52661 0,-33.05324 0,-49.57986 0,-8.46485 0,-16.92971 0,-25.39456 0,-3.2247 0,-6.44941 0,-9.67412 0,-3.2247 0.22145,-6.46054 0,-9.67412 -0.11414,-1.65623 -0.86325,-3.18332 -1,-4.83706 -0.33168,-4.01087 0,-8.06175 0,-12.09264 0,-1.61235 0.28924,-3.2631 0,-4.83706 -0.3894,-2.11901 -1.6106,-3.92732 -2,-6.04633 -0.28924,-1.57395 0.32338,-3.27284 0,-4.83706 -0.36155,-1.74883 -1.63845,-3.0882 -2,-4.83705 -0.32338,-1.56421 0,-3.2247 0,-4.83706 0,-5.24015 0,-10.48029 0,-15.72045 0,-2.01543 0,-4.03087 0,-6.04632 0,-0.40308 0.14907,-0.84872 0,-1.20927 -0.53748,-1.29992 -1.46252,-2.32787 -2,-3.62779 -0.19712,-0.47674 0,-4.85192 0,-6.04632 0,-4.03088 0,-8.06176 0,-12.09265 0,-1.02383 -0.1792,-4.18695 0,-4.83706 0.14907,-0.5408 0.78918,-0.69939 1,-1.20927 0.14907,-0.36053 0,-0.80616 0,-1.20926 0,-0.40308 0,-0.80617 0,-1.20927 0,-3.62779 0,-7.25558 0,-10.88338 0,-0.83502 -0.15202,-4.46939 0,-4.83706 0.21082,-0.50986 0.66667,-0.80617 1,-1.20926 0.33333,-0.40309 0.57836,-0.95433 1,-1.209263 0.29814,-0.180268 0.70186,0.180263 1,0 0.42164,-0.254936 0.57836,-0.95433 1,-1.209265 0.59628,-0.360534 1.40372,0.360532 2,0 0.84327,-0.509871 1.15673,-1.908659 2,-2.41853 0.29814,-0.180267 0.66667,0 1,0 1.66667,0 3.33333,0 5,0 z"
       id="path3008"
       inkscape:connector-curvature="0" />
    <path
       style="fill:none;stroke:#000000;stroke-width:1px;stroke-linecap:butt;stroke-linejoin:miter;stroke-opacity:1"
       d="m 108,124.36218 c 1.33333,-0.33333 2.63624,-0.82953 4,-1 1.32304,-0.16538 2.66667,0 4,0 4,0 8,0 12,0 9.66667,0 19.33333,0 29,0 3,0 6,0 9,0 1.33333,0 2.69256,0.26149 4,0 0.73088,-0.14617 1.2769,-0.81922 2,-1 0.64676,-0.16169 1.33333,0 2,0 2,0 4,0 6,0 5,0 10,0 15,0 0.65692,0 3.76485,0.11758 4,0 0.84327,-0.42163 1.12462,-1.64985 2,-2 0.92848,-0.37139 2,0 3,0 1.10262,0 5.28136,0.17966 6,0 0.45733,-0.11433 0.57836,-0.78918 1,-1 0.39424,-0.19712 4.01229,0 5,0 5,0 10,0 15,0 4.33333,0 8.66667,0 13,0 1.16717,0 5.21983,-0.19504 6,0 0.7231,0.18078 1.2769,0.81923 2,1 0.64676,0.16169 1.33333,0 2,0 1.87931,0 1.23648,-0.10541 4,1 0.69205,0.27682 1.37983,0.58655 2,1 0.39223,0.26149 0.54267,0.88567 1,1 1.18812,0.29703 3.56436,0 5,0 3.33333,0 6.66667,0 10,0 0.8372,0 6.34901,0.217 7,0 0.70711,-0.2357 1.29289,-0.7643 2,-1 0.77585,-0.25861 4.43483,0.1413 5,0 0.14038,-0.0351 1.7096,-1.8064 2,-2 0.62017,-0.41345 1.29289,-0.7643 2,-1 0.59013,-0.19671 4.44127,0 5,0 3.33333,0 6.66667,0 10,0"
       id="path3010"
       inkscape:connector-curvature="0" />
    <path
       style="fill:none;stroke:#000000;stroke-width:1px;stroke-linecap:butt;stroke-linejoin:miter;stroke-opacity:1"
       d="m 119,107.36218 c 1.66667,1.33334 3.33333,2.66667 5,4 0,0.66667 -0.3698,1.4453 0,2 0.41345,0.62018 1.33333,0.66667 2,1"
       id="path3012"
       inkscape:connector-curvature="0" />
    <path
       style="fill:none;stroke:#000000;stroke-width:1px;stroke-linecap:butt;stroke-linejoin:miter;stroke-opacity:1"
       d="m 131,104.36218 c -0.80169,4.21489 -3.47977,0.23989 -5,1 -0.53408,0.26704 -2.47354,2.47354 -3,3 -1.66667,1.66667 -3.33333,3.33334 -5,5 -0.78109,0.78109 -2.1371,2.42474 -3,3 -0.62017,0.41345 -1.33333,0.66667 -2,1"
       id="path3014"
       inkscape:connector-curvature="0" />
    <path
       style="fill:none;stroke:#000000;stroke-width:1px;stroke-linecap:butt;stroke-linejoin:miter;stroke-opacity:1"
       d="m 136,111.36218 c 9.9665,0 1.11438,0.94281 5,-1 0.29814,-0.14907 1,-0.33333 1,0 0,0.33334 -1.33333,0 -1,0 0.66667,0 1.33333,0 2,0"
       id="path3016"
       inkscape:connector-curvature="0" />
    <path
       style="fill:none;stroke:#000000;stroke-width:1px;stroke-linecap:butt;stroke-linejoin:miter;stroke-opacity:1"
       d="m 157,106.36218 c -1,1.33334 -2.25464,2.50929 -3,4 -0.29814,0.59629 0,1.33334 0,2 0,0.66667 0,1.33334 0,2 0,1.33334 0,2.66667 0,4 0,0.33334 0,0.66667 0,1 0,0.33334 -0.14907,0.70186 0,1 0.21082,0.42164 0.57836,0.78918 1,1 0.0523,0.0262 2.94768,0.0262 3,0 0.42164,-0.21082 0.57836,-0.78918 1,-1 1.37936,-0.68968 0.89447,1.21106 2,-1 0.17859,-0.35718 0,-5.76853 0,-6 0,-0.33333 0,-0.66666 0,-1 0,-0.33333 0.1849,-0.72265 0,-1 -1.18394,-1.7759 -2.66667,-3.33333 -4,-5 z"
       id="path3018"
       inkscape:connector-curvature="0" />
    <path
       style="fill:none;stroke:#000000;stroke-width:1px;stroke-linecap:butt;stroke-linejoin:miter;stroke-opacity:1"
       d="m 118,133.36218 c 0,7.60088 -0.59628,1.21115 1,6 0.31623,0.94869 -0.31623,2.05132 0,3 0.29814,0.89443 1.57836,1.15673 2,2 0.14907,0.29815 -0.14907,0.70186 0,1 0.21082,0.42164 0.78918,0.57837 1,1 0.2958,0.59161 -0.22031,5.11877 0,6 0.18078,0.7231 0.7643,1.2929 1,2 0.3542,1.06261 -0.3542,2.93739 0,4 0.2357,0.70711 0.81922,1.2769 1,2 0.24254,0.97015 0,2 0,3 0,2.33334 0,4.66667 0,7 0,0.39532 -0.21354,4.57292 0,5 0.21082,0.42164 0.57836,0.78918 1,1 0.36448,0.18224 4.4238,0 5,0 3.66667,0 7.33333,0 11,0 33.66667,0 67.33333,0 101,0 10,0 20,0 30,0 3.33333,0 6.66667,0 10,0 0.45036,0 2.69567,0.15217 3,0 0.42164,-0.21082 0.57836,-0.78918 1,-1 0.29814,-0.14907 0.70186,0.14907 1,0 0.42164,-0.21082 0.78918,-0.57836 1,-1 0.14907,-0.29814 0,-0.66666 0,-1 0,-0.33333 0,-0.66666 0,-1 0,-1.33333 0,-2.66666 0,-4 0,-0.33333 -0.0808,-0.67662 0,-1 0.25565,-1.02262 0.79328,-1.96637 1,-3 0.19612,-0.98058 0,-2 0,-3 0,-3 0,-6 0,-9 0,-3.33333 0,-6.66666 0,-10 0,-1 0,-2 0,-3 0,-0.33333 -0.14907,-0.70185 0,-1 0.21082,-0.42163 0.66667,-0.66666 1,-1 0.33333,-0.33333 0.66667,-1.33333 1,-1 0.33333,0.33334 -1,1.47141 -1,1 0,-3.45279 3.05093,-3.29938 -1,-6 -0.23766,-0.15844 -5.33924,0 -6,0 -5,0 -10,0 -15,0 -19.88995,0 5.94975,0.32999 -14,-1 -2.66076,-0.17738 -5.33333,0 -8,0 -7.33333,0 -14.66667,0 -22,0 -8.33333,0 -16.66667,0 -25,0 -3,0 -6,0 -9,0 -1.43564,0 -3.81188,-0.29703 -5,0 -0.45733,0.11434 -0.66667,0.66667 -1,1 -1,0 -2,0 -3,0 -2,0 -4,0 -6,0 -0.33333,0 -0.72265,-0.1849 -1,0 -0.78446,0.52298 -1.21554,1.47703 -2,2 -0.35912,0.23941 -5.33575,-0.16606 -6,0 -0.7231,0.18078 -1.29289,0.7643 -2,1 -0.31623,0.10541 -0.66667,0 -1,0 -0.67722,0 -6.54444,-0.15185 -7,0 -0.44721,0.14907 -0.57836,0.78918 -1,1 -0.29814,0.14907 -0.66667,0 -1,0 -0.33333,0 -0.66667,0 -1,0 -2.33333,0 -4.66667,0 -7,0 -6.66667,0 -13.33333,0 -20,0"
       id="path3020"
       inkscape:connector-curvature="0" />
    <path
       style="fill:none;stroke:#000000;stroke-width:0.91834617px;stroke-linecap:butt;stroke-linejoin:miter;stroke-opacity:1"
       d="m 129,250.20554 c 0.87163,2.17617 -0.52298,4.54159 0,6.74688 0.14618,0.61639 0.85382,1.07032 1,1.68672 0.19612,0.82698 0,1.68672 0,2.53008 0,0.28112 -0.0808,0.57063 0,0.84336 0.25565,0.86243 0.79328,1.65836 1,2.53007 0.13074,0.55133 0,1.12449 0,1.68672 0,2.24897 0,4.49793 0,6.74688 0,7.02801 0,14.056 0,21.08399 0,3.09233 0,6.18465 0,9.27696 0,1.12449 -0.18856,2.26026 0,3.37344 -0.34732,1.71593 1.64796,2.73233 2,4.2168 0.19612,0.82698 -0.12403,1.69323 0,2.53008 0.21082,1.42237 0.78918,2.79443 1,4.2168 0.12403,0.83685 -0.19612,1.70309 0,2.53008 0.14618,0.61639 0.85382,1.07032 1,1.68672 0.32686,1.3783 0,2.8112 0,4.21679 0,3.65457 0,7.30912 0,10.96368 0,0.83299 -0.19712,3.88431 0,4.2168 0.53748,0.90658 1.27889,1.7192 2,2.53008 0.28284,0.31805 0.78918,0.48777 1,0.84336 0.2275,0.38373 -0.0545,4.03292 0,4.2168 0.11433,0.38569 0.66667,0.56224 1,0.84336 0.33333,0.56224 0.85382,1.07032 1,1.68672 0.19612,0.82698 0,1.68671 0,2.53007 0,1.96785 0,3.93569 0,5.90352 0,0.56224 -0.21082,1.15334 0,1.68672 0.14907,0.37717 0.78918,0.48778 1,0.84336 0.29685,0.5007 -0.29101,4.4466 0,5.06016 0.44636,0.9411 1.46252,1.62349 2,2.53008 0.14907,0.25145 0,0.56224 0,0.84336 0,0.28112 0,0.56224 0,0.84336 0,0.51333 -0.16464,6.19149 0,6.74688 0.18078,0.60983 0.85382,1.07032 1,1.68672 0.26149,1.10264 0,2.24896 0,3.37343 0,2.53008 0,5.06016 0,7.59024 0,1.4056 0,2.81121 0,4.2168 0,0.28113 0,0.56224 0,0.84336 0,0.28113 0.14907,0.59192 0,0.84336 -0.21082,0.35559 -0.66667,0.56224 -1,0.84336 0,0.84336 0.24254,1.7119 0,2.53008 -0.11433,0.38569 -0.88567,0.45766 -1,0.84336 -0.24254,0.81818 0,1.68672 0,2.53008 0,0.28112 0.14907,0.59192 0,0.84336 -1.2357,2.08428 -1,-0.29111 -1,1.68672 0,1.4056 0,2.8112 0,4.21679 0,0.56225 0,1.12449 0,1.68672 0,0.28113 -0.14907,0.59192 0,0.84336 0.21082,0.3556 0.55279,0.71764 1,0.84336 0.3667,0.1031 5.82843,0 6,0 3,0 6,0 9,0 1,0 2.01361,0.13865 3,0 1.67655,-0.23565 3.30533,-0.73342 5,-0.84336 1.81893,-0.118 15.66204,0.13276 17,0 2.72991,-0.27085 5.27249,-1.39918 8,-1.68672 2.64607,-0.27895 5.33333,0 8,0 1.33333,0 2.67696,0.13948 4,0 1.36376,-0.14376 2.64433,-0.6528 4,-0.84336 0.6576,-0.0924 1.33333,0 2,0 1.66667,0 3.33333,0 5,0 4.33333,0 8.66667,0 13,0 4.33333,0 8.66667,0 13,0 0.55816,0 4.54224,-0.12868 5,0 1.41421,0.39757 2.72173,1.0399 4,1.68672 0.40423,0.20455 0.53775,0.7654 1,0.84336 2.28802,0.38593 4.71198,-0.38592 7,0 0.73088,0.12329 1.29289,0.64458 2,0.84336 0.63246,0.1778 1.36754,-0.17779 2,0 0.70711,0.19878 1.29289,0.64458 2,0.84336 0.31623,0.0889 0.66667,0 1,0 1.33333,0 2.66667,0 4,0 0.66667,0 1.35324,-0.13636 2,0 1.02262,0.21562 2.05719,0.4458 3,0.84336 4.57661,1.92987 -4.24342,-0.34954 3,1.68672 0.31623,0.0889 0.66667,0 1,0 1.66667,0 3.3657,-0.27566 5,0 0.73088,0.12328 1.26912,0.72009 2,0.84336 0.98058,0.1654 2.01942,-0.16539 3,0 0.49539,0.0836 2.06086,1.23938 3,0.84336 0.42164,-0.1778 0.88567,-0.45766 1,-0.84336 0.24254,-0.81817 0,-1.68672 0,-2.53008 0,-1.12447 0,-2.24895 0,-3.37344 0,-3.09231 0,-6.18463 0,-9.27695 0,-4.2168 0,-8.4336 0,-12.6504 0,-1.40559 0,-2.81119 0,-4.2168 0,-1.68672 0.18107,-3.38036 0,-5.06015 -0.15388,-1.42755 -0.84612,-2.78925 -1,-4.2168 -0.18107,-1.67979 0.35777,-3.40065 0,-5.06016 -3.33019,-15.44702 -0.55233,5.49407 -4,-7.59024 -0.36155,-1.37213 0,-2.8112 0,-4.2168 0,-1.12447 0,-2.24895 0,-3.37344 0,-3.65455 0,-7.30911 0,-10.96367 0,-1.68672 0,-3.37344 0,-5.06016 0,-0.56224 0.13074,-1.1354 0,-1.68672 -0.20672,-0.87171 -0.79328,-1.65836 -1,-2.53008 -0.13074,-0.55132 0,-1.12448 0,-1.68672 0,-1.40559 0,-2.8112 0,-4.2168 0,-3.93567 0,-7.87135 0,-11.80703 0,-1.12448 0,-2.24896 0,-3.37344 0,-0.56224 0.13074,-1.1354 0,-1.68672 -0.20672,-0.87172 -0.74435,-1.66764 -1,-2.53008 -0.16169,-0.54545 0,-1.12448 0,-1.68672 0,-1.12448 0,-2.24895 0,-3.37344 0,-3.65456 0,-7.30911 0,-10.96368 0,-1.40559 0,-2.81119 0,-4.21679 0,-0.56224 0,-1.12448 0,-1.68672 0,-0.28112 0.1238,-0.58235 0,-0.84336 -0.55364,-1.16729 -1.23304,-2.29539 -2,-3.37344 -0.24254,-0.3409 -0.88567,-0.45767 -1,-0.84336 -0.24254,-0.81818 0,-1.68672 0,-2.53008 0,-1.68672 0,-3.37344 0,-5.06016 0,-0.84336 0.31623,-1.72999 0,-2.53008 -0.14907,-0.37716 -0.78918,-0.48776 -1,-0.84336 -0.14907,-0.25144 0,-0.56223 0,-0.84336 0,-0.28111 0,-0.56223 0,-0.84336 0,-1.96783 0,-3.93567 0,-5.90352 0,-0.56223 0.16169,-1.14126 0,-1.68671 -0.25565,-0.86244 -0.74435,-1.66765 -1,-2.53008 -0.21302,-0.71861 0,-1.78653 0,-2.53008 0,-1.96784 0,-3.93568 0,-5.90352 0,-0.26173 0.2069,-2.41376 0,-2.53008 -1.81623,-1.02116 -3.09459,-0.84336 -5,-0.84336 -3,0 -6,0 -9,0 -6,0 -12,0 -18,0 -1.33333,0 -2.66667,0 -4,0 -1.33333,0 -2.67696,-0.13947 -4,0 -1.36376,0.14377 -2.63128,0.73842 -4,0.84336 -2.32375,0.17816 -4.66667,0 -7,0 -2.66667,0 -5.33333,0 -8,0 -8,0 -16,0 -24,0 -3.33333,0 -6.66667,0 -10,0 -1.33333,0 -2.73509,-0.35559 -4,0 -0.99079,0.27854 -2.00921,2.25155 -3,2.53008 -1.17728,0.33096 -4.67313,-0.27976 -6,0 -0.7231,0.15246 -1.2769,0.6909 -2,0.84336 -1.36214,0.2872 -4.79021,-0.34009 -6,0 -0.44721,0.12572 -0.55279,0.71764 -1,0.84336 -0.45776,0.12869 -4.44184,0 -5,0 -2.66667,0 -5.33333,0 -8,0 -6.33333,0 -12.66667,0 -19,0"
       id="path3022"
       inkscape:connector-curvature="0" />
    <path
       style="fill:none;stroke:#000000;stroke-width:1px;stroke-linecap:butt;stroke-linejoin:miter;stroke-opacity:1"
       d="m 261,153.36218 c 1,1.33334 4.33333,3 3,4 -1.33333,1 -4.58114,-4.52704 -3,-4 2.46982,0.82328 3.79231,3.62019 6,5 4,2.5 0.5,-1.25 3,0 2.94281,1.47141 -1.55228,1 3,1 2,0 4,0 6,0 0.33333,0 1,-0.33333 1,0 0,0.33334 -0.66667,0 -1,0"
       id="path3026"
       inkscape:connector-curvature="0" />
    <path
       style="fill:none;stroke:#000000;stroke-width:1px;stroke-linecap:butt;stroke-linejoin:miter;stroke-opacity:1"
       d="m 274,148.36218 c -1.35372,3.58419 -1,7.26413 -1,11 0,0.66667 0.21082,1.36755 0,2 -0.14907,0.44722 -0.78918,0.57837 -1,1 -0.14907,0.29815 0,0.66667 0,1 0,0.33334 0,0.66667 0,1 0,1.66667 0,3.33334 0,5"
       id="path3028"
       inkscape:connector-curvature="0" />
    <path
       style="fill:none;stroke:#000000;stroke-width:0.93653262px;stroke-linecap:butt;stroke-linejoin:miter;stroke-opacity:1"
       d="m 137.87709,424.36218 c -0.29236,1.33334 -0.64068,2.65232 -0.87709,4 -0.17202,0.98058 0,2 0,3 0,1.66667 0,3.33334 0,5 0,5 0,10 0,15 0,1.37212 -0.46046,3.23751 0.87709,4 0.26693,0.15217 2.23628,0 2.63128,0 2.33892,0 4.67783,0 7.01675,0 3.21601,0 6.43202,0 9.64803,0 1.16945,0 2.35483,0.2192 3.50837,0 0.64485,-0.12253 1.10934,-0.87746 1.75419,-1 2.30709,-0.43839 4.74766,0.64676 7.01674,0 1.26846,-0.36155 2.26798,-1.52859 3.50838,-2 0.55472,-0.21082 1.17741,0.1096 1.75418,0 1.18905,-0.22594 2.31933,-0.77405 3.50838,-1 0.57677,-0.1096 1.16945,0 1.75418,0 0.8771,0 1.75419,0 2.63128,0 2.92365,0 5.8473,0 8.77094,0 1.46182,0 2.92364,0 4.38546,0 0.58474,0 1.18082,0.13075 1.75419,0 0.90658,-0.20672 1.7247,-0.79327 2.63128,-1 0.81213,-0.18518 3.89819,0.27778 4.38547,0 1.10944,-0.63245 1.56764,-2.27239 2.63128,-3 0.5014,-0.34299 1.18692,0.16169 1.75418,0 0.63423,-0.18077 1.11996,-0.81922 1.75419,-1 0.8509,-0.24253 1.75419,0 2.63128,0 2.04655,0 4.09311,0 6.13965,0 2.92365,0 5.8473,0 8.77094,0 0.58473,0 1.16945,0 1.75418,0 0.58474,0 1.19946,-0.21082 1.75419,0 0.39225,0.14907 0.48485,0.85093 0.87709,1 3.99278,0 0.0502,-0.4714 2.63128,1 0.33138,0.18891 4.16157,0 5.26256,0 4.09311,0 8.18621,0 12.27931,0 1.46183,0 2.92364,0 4.38547,0 0.29236,0 0.58473,0 0.87709,0 0.29236,0 0.6156,-0.14907 0.87709,0 0.36982,0.21082 0.46364,1 0.8771,1 0.65375,0 1.29191,-0.47295 1.75418,-1 0.0282,-0.0322 0,-2.75747 0,-3 0,-5 0,-10 0,-15 0,-4.55228 -0.41346,-0.0572 0.8771,-3 0.13075,-0.29814 -0.29236,-1 0,-1 0.29236,0 0,1.33334 0,1 0,-0.66666 0.32435,-1.4453 0,-2 -0.36264,-0.62017 -1.16946,-0.66666 -1.75419,-1 -1.16945,-0.66666 -2.26798,-1.52859 -3.50837,-2 -0.55473,-0.21082 -1.16946,0 -1.75419,0 -0.87709,0 -1.76096,0.12404 -2.63128,0 -1.47926,-0.21082 -2.90082,-0.84612 -4.38547,-1 -1.74698,-0.18107 -3.50837,0 -5.26256,0 -2.33891,0 -4.67782,0 -7.01674,0 -7.01675,0 -14.0335,0 -21.05024,0 -0.76007,0 -3.0003,0.19309 -3.50838,0 -0.6202,-0.2357 -1.11996,-0.81922 -1.75418,-1 -0.68994,-0.19665 -4.35046,0 -5.26256,0 -0.58473,0 -1.18692,0.16169 -1.75419,0 -0.63423,-0.18077 -1.11996,-0.81922 -1.75419,-1 -0.56726,-0.16169 -1.16945,0 -1.75418,0 -1.01526,0 -3.60242,0.2232 -4.38547,0 -1.58749,0.60273 -1.63124,-1.61994 -2.63128,-2 -0.50257,-0.19099 -3.56203,0 -4.38547,0 -2.04654,0 -4.0931,0 -6.13965,0 -0.87709,0 -1.77122,0.19612 -2.63128,0 -0.90658,-0.20672 -1.73435,-0.74434 -2.63128,-1 -0.56727,-0.16169 -1.26766,0.3698 -1.75419,0 -0.68804,-0.52297 -1.09264,-1.43431 -1.75418,-2 -0.523,-0.44721 -1.21024,-0.58655 -1.75419,-1 -0.34402,-0.26149 -0.48485,-0.85093 -0.87709,-1 -1.71316,-0.65107 -2.00797,0.42978 -3.50838,1 -0.80431,0.30568 -4.71572,-0.31173 -5.26256,0 -0.36981,0.21082 -0.50727,0.78918 -0.87709,1 -0.55127,0.31426 -2.9571,-0.31426 -3.50837,0 -0.36982,0.21082 -0.48485,0.85093 -0.8771,1 -0.55472,0.21082 -1.16945,0 -1.75418,0 -0.29236,0 -0.6156,-0.14907 -0.8771,0 -0.73962,0.42164 -1.01456,1.57837 -1.75418,2 -0.2615,0.14907 -0.6156,-0.14907 -0.8771,0 -0.36981,0.21082 -0.50727,0.78918 -0.87709,1 -0.52299,0.29815 -1.19946,-0.21082 -1.75419,0 -0.6202,0.2357 -1.13398,0.7643 -1.75418,1 -0.60329,0.22928 -2.11378,-0.29501 -2.63128,0 -0.36982,0.21082 -0.50728,0.78918 -0.8771,1 -0.26149,0.14907 -0.58473,0 -0.87709,0 -1.46183,1.33334 -2.92364,2.66667 -4.38547,4 z"
       id="path3030"
       inkscape:connector-curvature="0" />
    <path
       style="fill:none;stroke:#000000;stroke-width:1px;stroke-linecap:butt;stroke-linejoin:miter;stroke-opacity:1"
       d="m 189,435.36218 c 1.33333,0 2.66667,0 4,0 5.687,0 0.65836,0.44722 5,-1 0.31623,-0.10541 0.66667,0 1,0 2.77454,0 2.82918,0.44722 5,-1 1.85355,-1.2357 0.0917,-1 2,-1 0.33333,0 1,-0.33333 1,0 0,0.33334 -0.66667,0 -1,0"
       id="path3032"
       inkscape:connector-curvature="0" />
    <path
       style="fill:none;stroke:#000000;stroke-width:1px;stroke-linecap:butt;stroke-linejoin:miter;stroke-opacity:1"
       d="m 202,426.36218 c -2.05996,3.43712 -2,4.78169 -2,8 0,0.66667 0,1.33334 0,2 0,0.33334 -0.1849,0.72265 0,1 0.52298,0.78447 1.33333,1.33334 2,2"
       id="path3034"
       inkscape:connector-curvature="0" />
    <path
       style="fill:none;stroke:#000000;stroke-width:1px;stroke-linecap:butt;stroke-linejoin:miter;stroke-opacity:1"
       d="m 144,285.36218 c 1.66667,0 3.34353,-0.18405 5,0 1.36596,0.15178 2.63404,0.84823 4,1 1.65647,0.18406 3.33333,0 5,0 2.66667,0 5.33333,0 8,0 2.33333,0 4.66667,0 7,0 1,0 2.02986,-0.24253 3,0 0.7231,0.18078 1.2769,0.81923 2,1 0.78662,0.19666 4.96008,0 6,0 3.66667,0 7.33333,0 11,0 8,0 16,0 24,0 5,0 10,0 15,0 1.66667,0 3.33333,0 5,0 1,0 2.00772,-0.12403 3,0 1.68655,0.21082 3.30876,0.83088 5,1 1.6584,0.16584 3.35601,-0.274 5,0 12.54944,2.09158 3.85505,2 8,2"
       id="path3036"
       inkscape:connector-curvature="0" />
    <path
       style="fill:none;stroke:#000000;stroke-width:1px;stroke-linecap:butt;stroke-linejoin:miter;stroke-opacity:1"
       d="m 138,315.36218 c 8.24116,0 0.151,-0.7396 7,2 1.23797,0.49519 2.73509,-0.42163 4,0 1.41421,0.47141 2.66667,1.33334 4,2 0.66667,0.33334 1.26479,0.87747 2,1 1.31519,0.2192 2.66667,0 4,0 1.66667,0.66667 3.25854,1.56464 5,2 5.50849,1.37713 9.31709,1 15,1 3,0 6,0 9,0 5.66667,0 11.33333,0 17,0 2,0 4.00993,0.19901 6,0 1.36755,-0.13675 2.63944,-0.80563 4,-1 0.98995,-0.14142 2,0 3,0 0.33333,0 0.68377,0.10541 1,0 0.70711,-0.2357 1.2769,-0.81922 2,-1 0.64676,-0.16169 1.33333,0 2,0 2,0 4,0 6,0 5.66667,0 11.33333,0 17,0"
       id="path3038"
       inkscape:connector-curvature="0" />
    <path
       style="fill:none;stroke:#000000;stroke-width:1px;stroke-linecap:butt;stroke-linejoin:miter;stroke-opacity:1"
       d="m 247,266.36218 c 5,0 10,0 15,0"
       id="path3042"
       inkscape:connector-curvature="0" />
    <path
       style="fill:none;stroke:#000000;stroke-width:1px;stroke-linecap:butt;stroke-linejoin:miter;stroke-opacity:1"
       d="m 248,309.36218 c 3.07174,-1.2159 5.83,-1 9,-1 0.66667,0 1.36754,0.21082 2,0 0.70711,-0.2357 1.29289,-0.7643 2,-1 0.5642,-0.18806 2.34289,0 3,0"
       id="path3044"
       inkscape:connector-curvature="0" />
    <text
       xml:space="preserve"
       style="font-size:40px;font-style:normal;font-weight:normal;line-height:125%;letter-spacing:0px;word-spacing:0px;fill:#000000;fill-opacity:1;stroke:none;font-family:Sans"
       x="164"
       y="218.36218"
       id="text3050"
       sodipodi:linespacing="125%"><tspan
         sodipodi:role="line"
         id="tspan3052"></tspan></text>
    <text
       xml:space="preserve"
       style="font-size:16px;font-style:normal;font-variant:normal;font-weight:normal;font-stretch:normal;text-align:start;line-height:125%;letter-spacing:0px;word-spacing:0px;writing-mode:lr-tb;text-anchor:start;fill:#000000;fill-opacity:1;stroke:none;font-family:Sans;-inkscape-font-specification:Sans"
       x="148"
       y="275.36218"
       id="text3054"
       sodipodi:linespacing="125%"><tspan
         sodipodi:role="line"
         id="tspan3056"
         x="148"
         y="275.36218">4:12:23</tspan></text>
    <text
       xml:space="preserve"
       style="font-size:16px;font-style:normal;font-variant:normal;font-weight:normal;font-stretch:normal;text-align:start;line-height:125%;letter-spacing:0px;word-spacing:0px;writing-mode:lr-tb;text-anchor:start;fill:#000000;fill-opacity:1;stroke:none;font-family:Sans;-inkscape-font-specification:Sans"
       x="163"
       y="311.36218"
       id="text3058"
       sodipodi:linespacing="125%"><tspan
         sodipodi:role="line"
         id="tspan3060"
         x="163"
         y="311.36218">0:21:01</tspan></text>
    <text
       xml:space="preserve"
       style="font-size:16px;font-style:normal;font-variant:normal;font-weight:normal;font-stretch:normal;text-align:start;line-height:125%;letter-spacing:0px;word-spacing:0px;writing-mode:lr-tb;text-anchor:start;fill:#000000;fill-opacity:1;stroke:none;font-family:Sans;-inkscape-font-specification:Sans"
       x="130"
       y="196.36218"
       id="text3064"
       sodipodi:linespacing="125%"><tspan
         sodipodi:role="line"
         id="tspan3066"
         x="130"
         y="196.36218">sort by:</tspan><tspan
         sodipodi:role="line"
         x="130"
         y="216.36218"
         id="tspan3068">added / remaining</tspan><tspan
         sodipodi:role="line"
         x="130"
         y="236.36218"
         id="tspan3070">[asc/desc]</tspan></text>
    <path
       style="fill:none;stroke:#000000;stroke-width:1px;stroke-linecap:butt;stroke-linejoin:miter;stroke-opacity:1"
       d="m 273.29677,428.694 c 0,7.54247 0,15.08495 0,22.62742 0,0.23776 0.0528,2.26374 0,2.47487 -0.0589,0.23571 -1.07846,0.68931 -0.70711,1.06066 0.51167,0.51167 1.13006,0.35356 1.76777,0.35356 0.82496,0 1.64992,0 2.47488,0 4.12478,0 8.24957,0 12.37436,0 3.77124,0 7.54248,0 11.31371,0 0.13282,0 1.75895,0.009 1.76777,0 0.18634,-0.18634 0.2357,-0.47141 0.35355,-0.70711 0.11785,-0.2357 0.27022,-0.45711 0.35356,-0.70711 0.0373,-0.1118 0,-0.2357 0,-0.35355 0,-0.70711 0,-1.41422 0,-2.12132 0,-1.06066 0,-2.12132 0,-3.18198 0,-0.47141 0.10226,-0.95404 0,-1.41422 -0.13768,-0.61953 -0.52475,-1.15988 -0.70711,-1.76776 -1.40048,-4.66828 0.0389,-0.11983 -0.35355,-2.47488 -0.87871,-5.27224 0.13355,1.72844 -0.70711,-2.47487 -0.2357,-1.17851 0.4714,-0.4714 0,-2.12132 -0.11674,-0.40857 -0.59037,-0.65209 -0.70711,-1.06066 -0.1295,-0.45327 0,-0.94281 0,-1.41421 0,-0.35356 0,-0.70711 0,-1.06066 0,-0.70711 0,-1.41422 0,-2.12132 0,-0.31172 0.0753,-0.75941 0,-1.06067 -0.0904,-0.36155 -0.18688,-0.72732 -0.35355,-1.06066 -0.0632,-0.1265 -1.76225,-1.76408 -1.76777,-1.76776 -0.0981,-0.0654 -0.2357,0 -0.35355,0 -0.2357,0 -0.47141,0 -0.70711,0 -0.58925,0 -1.17851,0 -1.76777,0 -0.82495,0 -1.64991,0 -2.47487,0 -0.4714,0 -0.94645,-0.0585 -1.41421,0 -0.48216,0.0603 -0.93319,0.28483 -1.41422,0.35355 -0.35,0.05 -0.71191,-0.0581 -1.06066,0 -0.3676,0.0613 -0.69522,0.28047 -1.06066,0.35355 -0.46225,0.0924 -0.94281,0 -1.41421,0 -0.70711,0 -7.77817,0 -2.12132,0 z"
       id="path3072"
       inkscape:connector-curvature="0"
       sodipodi:nodetypes="cscssssscscssscscsccsssccsssssssccscc" />
    <path
       style="fill:none;stroke:#000000;stroke-width:1px;stroke-linecap:butt;stroke-linejoin:miter;stroke-opacity:1"
       d="m 284.96403,437.53284 c 0.47141,-0.23571 0.92487,-0.51137 1.41422,-0.70711 0.21884,-0.0875 0.4714,0 0.7071,0 0.47141,0 0.94281,0 1.41422,0 0.35355,0 0.72525,-0.1118 1.06066,0 0.15811,0.0527 0.2357,0.2357 0.35355,0.35355 0.11785,0.11785 0.30085,0.19544 0.35355,0.35356 0.11181,0.33541 0,0.7071 0,1.06066 0,0.58925 0,1.17851 0,1.76776 0,0.33299 0.067,1.56665 0,1.76777 -0.0894,0.26827 -1.25174,1.08928 -1.41421,1.41421 -0.43539,0.87079 1.02627,-0.31916 -0.35355,1.06066 -0.0833,0.0833 -0.24815,-0.0527 -0.35356,0 -0.14907,0.0745 -0.21487,0.26111 -0.35355,0.35356 -0.0659,0.0439 -1.39156,0.68445 -1.41421,0.7071 -0.016,0.016 0,1.60107 0,1.76777"
       id="path3074"
       inkscape:connector-curvature="0" />
    <path
       style="fill:none;stroke:#000000;stroke-width:1px;stroke-linecap:butt;stroke-linejoin:miter;stroke-opacity:1"
       d="m 288.14601,449.2001 c 0.43472,-0.59595 -0.51571,2.47487 0.35356,2.47487 0.11785,0 0,-0.2357 0,-0.35355 0,-0.11785 0.0194,-0.23731 0,-0.35356 -0.0988,-0.59274 -0.23571,-1.17851 -0.35356,-1.76776 z"
       id="path3076"
       inkscape:connector-curvature="0" />
  </g>
</svg>
